# xmcd CD database file
#
# Track frame offsets:
#	150
#	18583
#	35399
#	50164
#	67256
#	81174
#	99817
#	118783
#	134537
#	158165
#	174072
#
# Disc length: 2486 seconds
#
# Revision: 0
# Processed by: cddbd v1.5.2PL0 Copyright (c) Steve Scherf et al.
# Submitted via: CDex 2.02
#
DISCID=8f09b40b
DTITLE=David Jacobs-Strain - First Friday Live
DYEAR=1997
DGENRE=Blues
TTITLE0=Goin' to Brownsville (The Girl I Love)
TTITLE1=Statesboro Blues
TTITLE2=Mean Ol' Frisco
TTITLE3=Wet Laundry Blues
TTITLE4=Nobody's Fault But Mine
TTITLE5=Death Letter Blues
TTITLE6=Come On In My Kitchen
TTITLE7=Rolling and Tumbling Blues
TTITLE8=Cypress Grove Blues
TTITLE9=Built For Comfort
TTITLE10=Dust My Broom
EXTD=YEAR: 1997
EXTT0=
EXTT1=
EXTT2=
EXTT3=
EXTT4=
EXTT5=
EXTT6=
EXTT7=
EXTT8=
EXTT9=
EXTT10=
PLAYORDER=
